<svg width="24" height="24" viewBox="0 0 24 24" fill="none" xmlns="http://www.w3.org/2000/svg">
<path fill-rule="evenodd" clip-rule="evenodd" d="M8.6292 3.12203e-07H14.7041C15.9898 -1.16485e-05 17.0268 -2.13832e-05 17.8661 0.0696784C18.7304 0.141453 19.489 0.293132 20.189 0.656756C21.2544 1.2102 22.1231 2.0789 22.6766 3.14432C23.0402 3.84432 23.1919 4.6029 23.2637 5.46719C23.3334 6.30649 23.3333 7.34351 23.3333 8.62924V14.7041C23.3333 15.9898 23.3334 17.0268 23.2637 17.8661C23.1919 18.7304 23.0402 19.489 22.6766 20.189C22.1231 21.2544 21.2544 22.1231 20.189 22.6766C19.489 23.0402 18.7304 23.1919 17.8661 23.2637C17.0268 23.3334 15.9898 23.3333 14.7041 23.3333H8.62924C7.34351 23.3333 6.30649 23.3334 5.46719 23.2637C4.60291 23.1919 3.84432 23.0402 3.14432 22.6766C2.0789 22.1231 1.2102 21.2544 0.656756 20.189C0.293132 19.489 0.141453 18.7304 0.0696784 17.8661C-2.13832e-05 17.0269 -1.16485e-05 15.9898 3.12203e-07 14.7041V8.6292C-1.16485e-05 7.34349 -2.13832e-05 6.30649 0.0696784 5.46719C0.141453 4.60291 0.293132 3.84432 0.656756 3.14432C1.2102 2.0789 2.0789 1.2102 3.14432 0.656756C3.84432 0.293132 4.6029 0.141453 5.46719 0.0696784C6.30648 -2.13832e-05 7.34349 -1.16485e-05 8.6292 3.12203e-07ZM5.6603 2.39501C4.94291 2.45458 4.53136 2.56561 4.21992 2.72739C3.58067 3.05945 3.05945 3.58067 2.72739 4.21992C2.56561 4.53136 2.45458 4.94291 2.39501 5.6603C2.33427 6.39165 2.33333 7.33161 2.33333 8.68V14.6533C2.33333 16.0017 2.33427 16.9417 2.39501 17.673C2.45458 18.3904 2.56561 18.802 2.72739 19.1134C3.05945 19.7527 3.58067 20.2739 4.21992 20.6059C4.53136 20.7677 4.94291 20.8788 5.6603 20.9383C6.39165 20.9991 7.33161 21 8.68 21H14.6533C16.0017 21 16.9417 20.9991 17.673 20.9383C18.3904 20.8788 18.802 20.7677 19.1134 20.6059C19.7527 20.2739 20.2739 19.7527 20.6059 19.1134C20.7677 18.802 20.8788 18.3904 20.9383 17.673C20.9991 16.9417 21 16.0017 21 14.6533V8.68C21 7.33161 20.9991 6.39165 20.9383 5.6603C20.8788 4.94291 20.7677 4.53136 20.6059 4.21992C20.2739 3.58067 19.7527 3.05945 19.1134 2.72739C18.802 2.56561 18.3904 2.45458 17.673 2.39501C16.9417 2.33427 16.0017 2.33333 14.6533 2.33333H8.68C7.33161 2.33333 6.39165 2.33427 5.6603 2.39501Z" fill="black"/>
<path fill-rule="evenodd" clip-rule="evenodd" d="M17.5002 10.5C17.8096 10.5 18.1064 10.6229 18.3252 10.8417L23.2332 15.75L21.5833 17.3999L17.5001 13.3166L11.3249 19.4916C11.0966 19.72 10.7839 19.8434 10.4612 19.8327C10.1385 19.8219 9.83462 19.6779 9.62199 19.4349L6.36821 15.7163L2.34172 19.825C1.89074 20.2852 1.15208 20.2927 0.691888 19.8417C0.231694 19.3907 0.224226 18.6521 0.675208 18.1919L5.58341 13.1834C5.81085 12.9513 6.12478 12.8246 6.4496 12.8338C6.77442 12.843 7.08069 12.9872 7.29467 13.2317L10.5568 16.9599L16.6752 10.8417C16.894 10.6229 17.1908 10.5 17.5002 10.5Z" fill="black"/>
<path d="M8.16667 6.41667C8.16667 7.38317 7.38317 8.16667 6.41667 8.16667C5.45017 8.16667 4.66667 7.38317 4.66667 6.41667C4.66667 5.45017 5.45017 4.66667 6.41667 4.66667C7.38317 4.66667 8.16667 5.45017 8.16667 6.41667Z" fill="black"/>
</svg>
