<svg width="28" height="28" viewBox="0 0 28 28" fill="none" xmlns="http://www.w3.org/2000/svg">
<path fill-rule="evenodd" clip-rule="evenodd" d="M18.3751 3.49996H4.66673C4.0224 3.49996 3.50006 4.02229 3.50006 4.66663V23.3333C3.50006 23.9776 4.0224 24.5 4.66673 24.5H23.3334C23.9777 24.5 24.5001 23.9776 24.5001 23.3333V9.62496H18.3751V3.49996ZM5.83339 22.1666V18.375H9.62506V22.1666H5.83339ZM22.1667 11.9583V16.0416H18.3751V11.9583H22.1667ZM22.1667 18.375H18.3751V22.1666H22.1667V18.375ZM16.0417 11.9583V16.0416H11.9584V11.9583H16.0417ZM16.0417 18.375H11.9584V22.1666H16.0417V18.375ZM9.62506 11.9583V16.0416H5.83339V11.9583H9.62506ZM9.62506 9.62496H5.83339V5.83329H9.62506V9.62496ZM16.0417 9.62496H11.9584V5.83329H16.0417V9.62496Z" fill="black"/>
<path d="M22.4584 7.29163C22.4584 7.77488 22.8501 8.16663 23.3334 8.16663C23.8166 8.16663 24.2084 7.77488 24.2084 7.29163V5.54163H25.9584C26.4416 5.54163 26.8334 5.14988 26.8334 4.66663C26.8334 4.18338 26.4416 3.79163 25.9584 3.79163H24.2084V2.04163C24.2084 1.55838 23.8166 1.16663 23.3334 1.16663C22.8501 1.16663 22.4584 1.55838 22.4584 2.04163V3.79163H20.7084C20.2251 3.79163 19.8334 4.18338 19.8334 4.66663C19.8334 5.14988 20.2251 5.54163 20.7084 5.54163H22.4584V7.29163Z" fill="black"/>
</svg>
